<svg version="1.1" xmlns="http://www.w3.org/2000/svg" xmlns:xlink="http://www.w3.org/1999/xlink" width="199.76647" height="57.53198" viewBox="0,0,199.76647,57.53198"><defs><linearGradient x1="271.39743" y1="180.05621" x2="291.8856" y2="180.05621" gradientUnits="userSpaceOnUse" id="color-1"><stop offset="0" stop-color="#000000" stop-opacity="0"/><stop offset="1" stop-color="#000000" stop-opacity="0.20865"/></linearGradient></defs><g transform="translate(-140.11677,-151.23401)"><g data-paper-data="{&quot;isPaintingLayer&quot;:true}" fill-rule="nonzero" stroke-linejoin="miter" stroke-miterlimit="10" stroke-dasharray="" stroke-dashoffset="0" style="mix-blend-mode: normal"><g stroke="none" stroke-width="0" stroke-linecap="butt"><path d="M140.11677,194.14684v-28.18125h156.15885v28.18125z" fill="#a8a8ad"/><path d="M271.39743,194.14684v-28.18125h20.48818v28.18125z" fill="url(#color-1)"/><path d="M289.64723,151.80571c6.63882,3.47909 34.9016,18.29028 47.48106,24.88257c3.72968,1.95454 3.6664,4.45184 -0.15338,6.4536c-12.78314,6.69903 -41.30679,21.64691 -47.75871,25.02806c-2.54284,1.33258 -4.97171,0.46943 -4.97171,-2.98026c0,-12.76087 0,-43.49763 0,-50.58585c0,-2.85055 2.66911,-4.23068 5.40274,-2.79812z" fill="#bcbcc2"/></g><g fill="none" stroke="#e6e6e6" stroke-width="2" stroke-linecap="round"><g><path d="M173.50238,174.63578c0,0 -0.58135,-3.01447 2.27245,-3.14388c0.67318,-0.07385 1.61281,0.17663 2.20907,0.77973c0.50929,0.51513 0.73169,1.30573 0.72396,2.171c0.0591,3.87642 -4.04112,3.62437 -4.1963,3.62437c-1.65791,0 -13.3212,0 -13.3212,0" data-paper-data="{&quot;index&quot;:null}"/><path d="M154.39522,182.13804c0,0 14.42171,0 16.07963,0c0.15518,0 4.2554,-0.25205 4.1963,3.62437c0.01678,1.87832 -1.81943,3.15494 -3.13487,2.81619c-2.85381,-0.73492 -2.00333,-3.21117 -2.00333,-3.21117"/></g><g><path d="M222.16633,174.63575c0,0 -0.58135,-3.01449 2.27245,-3.14389c0.67318,-0.07385 1.61281,0.17665 2.20908,0.77974c0.5093,0.51514 0.73168,1.30574 0.72394,2.17102c0.0591,3.8764 -4.04111,3.62437 -4.19629,3.62437c-1.6579,0 -13.3212,0 -13.3212,0" data-paper-data="{&quot;index&quot;:null}"/><path d="M203.05916,182.13801c0,0 14.42171,0 16.07961,0c0.15518,0 4.25541,-0.25204 4.19631,3.62437c0.01677,1.87834 -1.81944,3.15494 -3.13488,2.81619c-2.85381,-0.7349 -2.00333,-3.21116 -2.00333,-3.21116"/></g><g><path d="M271.0962,174.63578c0,0 -0.58135,-3.01448 2.27245,-3.14388c0.67318,-0.07385 1.61281,0.17664 2.20908,0.77973c0.5093,0.51514 0.73168,1.30574 0.72394,2.17102c0.0591,3.8764 -4.04111,3.62437 -4.19629,3.62437c-1.6579,0 -13.3212,0 -13.3212,0" data-paper-data="{&quot;index&quot;:null}"/><path d="M251.98902,182.13804c0,0 14.42173,0 16.07964,0c0.15518,0 4.2554,-0.25204 4.1963,3.62437c0.01677,1.87834 -1.81944,3.15494 -3.13488,2.81619c-2.85381,-0.7349 -2.00333,-3.21116 -2.00333,-3.21116"/></g></g></g></g></svg>